<?xml version="1.0" encoding="UTF-8"?>
<svg xmlns="http://www.w3.org/2000/svg" xmlns:xlink="http://www.w3.org/1999/xlink" width="12pt" height="12pt" viewBox="0 0 12 12" version="1.1">
<g id="surface1">
<path style=" stroke:none;fill-rule:nonzero;fill:rgb(43.137255%,43.137255%,43.137255%);fill-opacity:1;" d="M 6.804688 5.910156 C 6.773438 5.878906 6.71875 5.878906 6.6875 5.910156 C 6.230469 6.367188 6.445312 6.15625 5.988281 6.609375 C 5.824219 6.773438 5.558594 6.773438 5.394531 6.609375 C 5.226562 6.445312 5.226562 6.179688 5.394531 6.011719 C 5.820312 5.585938 5.660156 5.746094 6.089844 5.316406 C 6.125 5.285156 6.125 5.230469 6.089844 5.199219 L 5.730469 4.835938 C 5.695312 4.804688 5.644531 4.804688 5.613281 4.835938 C 5.15625 5.292969 5.371094 5.078125 4.910156 5.535156 C 4.480469 5.964844 4.480469 6.660156 4.910156 7.089844 C 5.339844 7.515625 6.039062 7.515625 6.464844 7.089844 C 6.894531 6.660156 6.734375 6.820312 7.167969 6.390625 C 7.199219 6.359375 7.199219 6.304688 7.167969 6.273438 Z M 6.992188 6.332031 L 6.757812 6.566406 L 6.511719 6.320312 L 6.746094 6.085938 Z M 5.914062 5.257812 L 5.679688 5.492188 L 5.4375 5.246094 L 5.671875 5.015625 Z M 6.347656 6.972656 C 5.984375 7.335938 5.390625 7.335938 5.027344 6.972656 C 4.664062 6.609375 4.664062 6.019531 5.027344 5.652344 L 5.320312 5.363281 L 5.5625 5.609375 L 5.277344 5.894531 C 5.046875 6.125 5.046875 6.496094 5.277344 6.726562 C 5.503906 6.953125 5.878906 6.953125 6.105469 6.726562 L 6.394531 6.4375 L 6.640625 6.683594 Z M 6.347656 6.972656 "/>
<path style=" stroke:none;fill-rule:nonzero;fill:rgb(43.137255%,43.137255%,43.137255%);fill-opacity:1;" d="M 6.871094 4.589844 C 6.574219 4.589844 6.332031 4.832031 6.332031 5.128906 C 6.332031 5.425781 6.574219 5.667969 6.871094 5.667969 C 7.171875 5.667969 7.410156 5.425781 7.410156 5.128906 C 7.410156 4.832031 7.171875 4.589844 6.871094 4.589844 Z M 6.871094 5.503906 C 6.664062 5.503906 6.5 5.335938 6.5 5.128906 C 6.5 4.921875 6.664062 4.753906 6.871094 4.753906 C 7.078125 4.753906 7.246094 4.921875 7.246094 5.128906 C 7.246094 5.335938 7.078125 5.503906 6.871094 5.503906 Z M 6.871094 5.503906 "/>
<path style=" stroke:none;fill-rule:nonzero;fill:rgb(43.137255%,43.137255%,43.137255%);fill-opacity:1;" d="M 6.871094 4.972656 C 6.824219 4.972656 6.789062 5.007812 6.789062 5.054688 L 6.789062 5.203125 C 6.789062 5.25 6.824219 5.285156 6.871094 5.285156 C 6.917969 5.285156 6.953125 5.25 6.953125 5.203125 L 6.953125 5.054688 C 6.953125 5.007812 6.917969 4.972656 6.871094 4.972656 Z M 6.871094 4.972656 "/>
</g>
</svg>
