<svg fill="#6e6e6e" id="Capa_1" enable-background="new 0 0 510.046 510.046" height="512" viewBox="0 0 510.046 510.046" width="512" xmlns="http://www.w3.org/2000/svg"><path d="m400.394 239.041c-5.855-5.846-15.339-5.845-21.194 0-82.603 82.464-44.05 43.993-126.144 125.875-29.704 29.653-78.034 29.652-107.736 0-29.75-29.7-29.758-77.766-.004-107.47 77.207-77.021 48.415-48.291 126.146-125.877 5.866-5.855 5.871-15.373.001-21.232l-65.439-65.333c-5.895-5.887-15.416-5.77-21.195 0-82.353 82.214-43.734 43.678-126.574 126.305-77.668 77.537-77.677 203.046.001 280.59 77.483 77.339 203.546 77.339 281.014.003 77.535-77.349 48.721-48.594 126.565-126.309 5.872-5.863 5.863-15.38-.001-21.232zm33.611 75.938-42.276 42.206-44.175-44.159 42.245-42.173zm-194.371-194.027-42.144 42.064-44.176-44.16 42.111-42.04zm78.444 309.715c-65.786 65.674-172.834 65.672-238.628 0-65.912-65.8-65.931-172.308-.005-238.123l52.634-52.499 44.176 44.16-52.131 52.005c-41.502 41.432-41.506 108.499 0 149.936 41.391 41.321 108.738 41.318 150.122.004l52.072-51.937 44.177 44.16z"/><path d="m412.546.142c-53.888 0-97.5 43.607-97.5 97.5 0 53.887 43.607 97.5 97.5 97.5 53.888 0 97.5-43.607 97.5-97.5 0-53.887-43.606-97.5-97.5-97.5zm0 165c-37.306 0-67.5-30.189-67.5-67.5 0-37.306 30.189-67.5 67.5-67.5 37.306 0 67.5 30.189 67.5 67.5 0 37.306-30.189 67.5-67.5 67.5z"/><path d="m412.546 69.248c-8.284 0-15 6.716-15 15v26.788c0 8.284 6.716 15 15 15s15-6.716 15-15v-26.788c0-8.284-6.716-15-15-15z"/></svg>
