<svg id="svg" version="1.1" xmlns="http://www.w3.org/2000/svg" xmlns:xlink="http://www.w3.org/1999/xlink" width="400" height="400" viewBox="0, 0, 400,400"><g id="svgg"><path id="path0" d="M265.686 89.674 C 265.419 89.941,265.200 90.390,265.200 90.671 C 265.200 91.065,263.428 91.208,257.500 91.291 C 249.947 91.398,249.792 91.417,249.405 92.300 C 249.027 93.163,248.808 93.200,244.105 93.200 L 239.200 93.200 239.200 94.200 L 239.200 95.200 234.829 95.200 C 230.523 95.200,229.200 95.579,229.200 96.814 C 229.200 97.010,227.445 97.223,225.300 97.286 C 221.619 97.394,221.393 97.450,221.274 98.286 C 221.155 99.121,220.928 99.178,217.274 99.286 C 213.601 99.394,213.393 99.447,213.272 100.300 C 213.153 101.142,212.951 101.200,210.154 101.200 C 207.498 101.200,207.052 101.312,206.164 102.200 C 205.276 103.088,204.829 103.200,202.182 103.200 C 199.268 103.200,199.200 103.223,199.200 104.200 L 199.200 105.200 195.200 105.200 L 191.200 105.200 191.200 106.200 L 191.200 107.200 187.200 107.200 C 183.216 107.200,183.200 107.204,183.200 108.186 C 183.200 109.158,183.147 109.173,179.300 109.286 C 175.619 109.394,175.393 109.450,175.274 110.286 C 175.155 111.121,174.928 111.178,171.274 111.286 C 167.601 111.394,167.393 111.447,167.272 112.300 C 167.149 113.164,166.987 113.200,163.172 113.200 C 159.202 113.200,159.200 113.200,159.200 114.200 L 159.200 115.200 154.200 115.200 L 149.200 115.200 149.200 116.200 L 149.200 117.200 143.358 117.200 C 137.602 117.200,137.503 117.215,136.729 118.200 L 135.942 119.200 122.371 119.200 L 108.800 119.200 108.800 118.200 L 108.800 117.200 104.800 117.200 L 100.800 117.200 100.800 116.200 C 100.800 115.277,100.657 115.200,98.946 115.200 C 97.482 115.200,96.897 114.990,96.165 114.200 C 95.573 113.561,94.804 113.200,94.037 113.200 C 93.290 113.200,92.459 112.823,91.836 112.200 C 91.286 111.650,90.378 111.200,89.818 111.200 C 88.999 111.200,88.800 111.005,88.800 110.200 C 88.800 109.428,88.594 109.200,87.895 109.200 C 87.340 109.200,86.837 108.852,86.595 108.300 C 86.352 107.747,85.780 107.352,85.109 107.274 C 84.509 107.205,83.673 106.710,83.251 106.174 C 82.830 105.638,82.116 105.200,81.665 105.200 C 80.987 105.200,80.825 104.907,80.723 103.500 C 80.628 102.187,80.395 101.710,79.700 101.405 C 79.148 101.163,78.800 100.660,78.800 100.105 C 78.800 99.406,78.572 99.200,77.800 99.200 C 77.000 99.200,76.800 99.000,76.800 98.200 L 76.800 97.200 71.800 97.200 C 66.350 97.200,66.928 96.987,64.300 99.967 C 62.664 101.822,62.585 108.800,64.200 108.800 C 65.072 108.800,65.200 108.975,65.200 110.171 C 65.200 111.473,66.022 112.800,66.829 112.800 C 67.033 112.800,67.200 113.250,67.200 113.800 C 67.200 114.600,67.400 114.800,68.200 114.800 C 69.000 114.800,69.200 115.000,69.200 115.800 C 69.200 116.600,69.400 116.800,70.200 116.800 C 71.000 116.800,71.200 117.000,71.200 117.800 C 71.200 118.600,71.400 118.800,72.200 118.800 C 73.000 118.800,73.200 119.000,73.200 119.800 C 73.200 120.672,73.375 120.800,74.571 120.800 C 75.557 120.800,76.163 121.081,76.729 121.800 C 77.161 122.350,77.894 122.800,78.358 122.800 C 78.989 122.800,79.200 123.050,79.200 123.800 C 79.200 124.672,79.375 124.800,80.571 124.800 C 81.557 124.800,82.163 125.081,82.729 125.800 C 83.161 126.350,83.886 126.800,84.339 126.800 C 84.793 126.800,85.614 127.250,86.164 127.800 C 86.966 128.602,87.562 128.800,89.182 128.800 C 91.068 128.800,91.200 128.865,91.200 129.800 C 91.200 130.778,91.267 130.800,94.200 130.800 C 97.133 130.800,97.200 130.822,97.200 131.800 L 97.200 132.800 102.173 132.800 C 106.793 132.800,107.164 132.857,107.400 133.599 C 107.779 134.795,108.301 134.832,123.000 134.712 L 136.600 134.600 136.728 133.700 C 136.855 132.806,136.902 132.800,143.828 132.800 L 150.800 132.800 150.800 131.811 L 150.800 130.822 156.500 130.711 C 161.976 130.604,162.215 130.565,162.595 129.700 C 162.966 128.855,163.229 128.800,166.895 128.800 C 170.794 128.800,170.800 128.798,170.800 127.800 L 170.800 126.800 174.800 126.800 L 178.800 126.800 178.800 125.800 L 178.800 124.800 182.800 124.800 L 186.800 124.800 186.800 123.800 L 186.800 122.800 190.800 122.800 C 194.784 122.800,194.800 122.796,194.800 121.815 C 194.800 120.848,194.866 120.828,198.500 120.715 C 201.898 120.609,202.232 120.527,202.595 119.700 C 202.958 118.872,203.252 118.800,206.266 118.800 C 209.461 118.800,210.800 118.319,210.800 117.171 C 210.800 116.967,212.079 116.800,213.642 116.800 C 216.198 116.800,216.564 116.699,217.271 115.800 C 217.999 114.875,218.310 114.800,221.429 114.800 C 224.758 114.800,224.800 114.788,224.800 113.800 L 224.800 112.800 228.800 112.800 C 232.787 112.800,232.800 112.797,232.800 111.812 L 232.800 110.825 237.700 110.712 C 242.417 110.604,242.605 110.567,242.726 109.712 C 242.848 108.858,243.036 108.820,247.726 108.712 C 252.421 108.604,252.605 108.567,252.727 107.709 C 252.851 106.833,252.963 106.817,259.727 106.709 C 266.512 106.601,266.602 106.589,266.728 105.700 L 266.856 104.800 277.028 104.800 L 287.200 104.800 287.200 105.800 L 287.200 106.800 292.200 106.800 L 297.200 106.800 297.200 107.800 C 297.200 108.778,297.267 108.800,300.200 108.800 C 303.133 108.800,303.200 108.822,303.200 109.800 C 303.200 110.733,303.333 110.800,305.200 110.800 C 307.067 110.800,307.200 110.867,307.200 111.800 C 307.200 112.733,307.333 112.800,309.200 112.800 C 311.067 112.800,311.200 112.867,311.200 113.800 C 311.200 114.600,311.400 114.800,312.200 114.800 C 313.000 114.800,313.200 115.000,313.200 115.800 C 313.200 116.587,313.403 116.800,314.153 116.800 C 314.782 116.800,315.181 117.083,315.324 117.630 C 315.443 118.086,315.897 118.553,316.333 118.667 C 316.769 118.781,317.219 119.231,317.333 119.667 C 317.447 120.103,317.897 120.553,318.333 120.667 C 318.769 120.781,319.219 121.231,319.333 121.667 C 319.447 122.103,319.914 122.557,320.370 122.676 C 320.917 122.819,321.200 123.218,321.200 123.847 C 321.200 124.597,321.413 124.800,322.200 124.800 C 323.000 124.800,323.200 125.000,323.200 125.800 C 323.200 126.600,323.400 126.800,324.200 126.800 C 324.920 126.800,325.200 127.015,325.200 127.569 C 325.200 127.992,325.754 128.892,326.431 129.569 L 327.662 130.800 333.231 130.800 L 338.800 130.800 338.800 128.800 C 338.800 126.933,338.867 126.800,339.800 126.800 C 340.766 126.800,340.800 126.709,340.800 124.158 C 340.800 121.815,340.686 121.426,339.800 120.729 C 339.081 120.163,338.800 119.557,338.800 118.571 C 338.800 117.375,338.672 117.200,337.800 117.200 C 337.000 117.200,336.800 117.000,336.800 116.200 C 336.800 115.400,336.600 115.200,335.800 115.200 C 334.867 115.200,334.800 115.067,334.800 113.200 C 334.800 111.333,334.733 111.200,333.800 111.200 C 333.000 111.200,332.800 111.000,332.800 110.200 C 332.800 109.400,332.600 109.200,331.800 109.200 C 331.000 109.200,330.800 109.000,330.800 108.200 C 330.800 107.400,330.600 107.200,329.800 107.200 C 329.000 107.200,328.800 107.000,328.800 106.200 C 328.800 105.408,328.598 105.200,327.828 105.200 C 327.124 105.200,326.820 104.951,326.728 104.300 C 326.619 103.532,326.321 103.382,324.700 103.278 C 322.985 103.168,322.800 103.061,322.800 102.178 C 322.800 101.401,322.594 101.200,321.800 101.200 C 321.000 101.200,320.800 101.000,320.800 100.200 C 320.800 99.267,320.667 99.200,318.800 99.200 C 316.933 99.200,316.800 99.133,316.800 98.200 C 316.800 97.267,316.667 97.200,314.800 97.200 C 312.933 97.200,312.800 97.133,312.800 96.200 C 312.800 95.267,312.667 95.200,310.800 95.200 C 308.933 95.200,308.800 95.133,308.800 94.200 C 308.800 93.222,308.733 93.200,305.800 93.200 C 304.150 93.200,302.800 93.033,302.800 92.829 C 302.800 91.514,301.528 91.200,296.199 91.200 C 290.962 91.200,290.853 91.182,290.728 90.300 L 290.600 89.400 278.386 89.294 C 269.220 89.215,266.050 89.310,265.686 89.674 M197.200 143.172 C 197.200 144.913,197.094 145.159,196.300 145.272 C 195.474 145.389,195.390 145.639,195.282 148.300 C 195.170 151.081,195.125 151.200,194.182 151.200 C 193.270 151.200,193.200 151.343,193.200 153.200 C 193.200 155.067,193.133 155.200,192.200 155.200 C 191.267 155.200,191.200 155.333,191.200 157.200 C 191.200 159.067,191.133 159.200,190.200 159.200 C 189.267 159.200,189.200 159.333,189.200 161.200 C 189.200 163.067,189.133 163.200,188.200 163.200 C 187.267 163.200,187.200 163.333,187.200 165.200 C 187.200 167.067,187.133 167.200,186.200 167.200 C 185.267 167.200,185.200 167.333,185.200 169.200 C 185.200 171.067,185.133 171.200,184.200 171.200 C 183.405 171.200,183.200 171.401,183.200 172.182 C 183.200 172.722,182.750 173.614,182.200 174.164 C 181.650 174.714,181.200 175.622,181.200 176.182 C 181.200 177.001,181.005 177.200,180.200 177.200 C 179.267 177.200,179.200 177.333,179.200 179.200 C 179.200 181.067,179.133 181.200,178.200 181.200 C 177.408 181.200,177.200 181.402,177.200 182.172 C 177.200 182.876,176.951 183.180,176.300 183.272 C 175.532 183.381,175.382 183.679,175.278 185.300 C 175.168 187.015,175.061 187.200,174.178 187.200 C 173.271 187.200,173.200 187.345,173.200 189.200 C 173.200 191.067,173.133 191.200,172.200 191.200 C 171.428 191.200,171.200 191.406,171.200 192.105 C 171.200 192.660,170.852 193.163,170.300 193.405 C 169.605 193.710,169.372 194.187,169.277 195.500 C 169.168 197.002,169.040 197.200,168.177 197.200 C 167.271 197.200,167.200 197.346,167.200 199.200 C 167.200 201.067,167.133 201.200,166.200 201.200 C 165.222 201.200,165.200 201.267,165.200 204.200 C 165.200 207.133,165.178 207.200,164.200 207.200 L 163.200 207.200 163.200 218.000 L 163.200 228.800 164.200 228.800 C 165.178 228.800,165.200 228.867,165.200 231.800 C 165.200 234.733,165.222 234.800,166.200 234.800 C 167.072 234.800,167.200 234.975,167.200 236.171 C 167.200 237.473,168.022 238.800,168.829 238.800 C 169.033 238.800,169.200 239.250,169.200 239.800 C 169.200 240.600,169.400 240.800,170.200 240.800 C 171.000 240.800,171.200 241.000,171.200 241.800 C 171.200 242.600,171.400 242.800,172.200 242.800 C 173.000 242.800,173.200 243.000,173.200 243.800 C 173.200 244.600,173.400 244.800,174.200 244.800 C 175.000 244.800,175.200 245.000,175.200 245.800 C 175.200 246.600,175.400 246.800,176.200 246.800 C 177.000 246.800,177.200 247.000,177.200 247.800 C 177.200 248.733,177.333 248.800,179.200 248.800 C 181.067 248.800,181.200 248.867,181.200 249.800 C 181.200 250.733,181.333 250.800,183.200 250.800 C 185.067 250.800,185.200 250.867,185.200 251.800 C 185.200 252.800,185.202 252.800,189.172 252.800 C 192.987 252.800,193.149 252.836,193.272 253.700 C 193.397 254.579,193.532 254.603,199.100 254.711 L 204.800 254.822 204.800 253.811 L 204.800 252.800 208.800 252.800 L 212.800 252.800 212.800 251.800 C 212.800 250.867,212.933 250.800,214.800 250.800 C 216.667 250.800,216.800 250.733,216.800 249.800 C 216.800 248.867,216.933 248.800,218.800 248.800 C 220.667 248.800,220.800 248.733,220.800 247.800 C 220.800 247.000,221.000 246.800,221.800 246.800 C 222.600 246.800,222.800 246.600,222.800 245.800 C 222.800 245.000,223.000 244.800,223.800 244.800 C 224.600 244.800,224.800 244.600,224.800 243.800 C 224.800 243.000,225.000 242.800,225.800 242.800 C 226.600 242.800,226.800 242.600,226.800 241.800 C 226.800 241.000,227.000 240.800,227.800 240.800 C 228.600 240.800,228.800 240.600,228.800 239.800 C 228.800 239.000,229.000 238.800,229.800 238.800 C 230.733 238.800,230.800 238.667,230.800 236.800 C 230.800 234.933,230.867 234.800,231.800 234.800 C 232.733 234.800,232.800 234.667,232.800 232.800 C 232.800 230.933,232.867 230.800,233.800 230.800 L 234.800 230.800 234.800 218.000 L 234.800 205.200 233.800 205.200 C 232.867 205.200,232.800 205.067,232.800 203.200 C 232.800 201.333,232.733 201.200,231.800 201.200 C 230.867 201.200,230.800 201.067,230.800 199.200 C 230.800 197.333,230.733 197.200,229.800 197.200 C 228.867 197.200,228.800 197.067,228.800 195.200 C 228.800 193.333,228.733 193.200,227.800 193.200 C 226.867 193.200,226.800 193.067,226.800 191.200 C 226.800 189.333,226.733 189.200,225.800 189.200 C 225.050 189.200,224.800 188.989,224.800 188.358 C 224.800 187.894,224.350 187.161,223.800 186.729 C 222.934 186.048,222.800 185.624,222.800 183.571 C 222.800 181.309,222.754 181.200,221.800 181.200 C 220.867 181.200,220.800 181.067,220.800 179.200 C 220.800 177.333,220.733 177.200,219.800 177.200 C 218.995 177.200,218.800 177.001,218.800 176.182 C 218.800 175.622,218.350 174.714,217.800 174.164 C 217.250 173.614,216.800 172.722,216.800 172.182 C 216.800 171.401,216.595 171.200,215.800 171.200 C 214.867 171.200,214.800 171.067,214.800 169.200 C 214.800 167.333,214.733 167.200,213.800 167.200 C 212.867 167.200,212.800 167.067,212.800 165.200 C 212.800 163.333,212.733 163.200,211.800 163.200 C 210.867 163.200,210.800 163.067,210.800 161.200 C 210.800 159.333,210.733 159.200,209.800 159.200 C 208.867 159.200,208.800 159.067,208.800 157.200 C 208.800 155.333,208.733 155.200,207.800 155.200 C 206.867 155.200,206.800 155.067,206.800 153.200 C 206.800 151.343,206.730 151.200,205.818 151.200 C 204.875 151.200,204.830 151.081,204.718 148.300 C 204.610 145.639,204.526 145.389,203.700 145.272 C 202.906 145.159,202.800 144.913,202.800 143.172 L 202.800 141.200 200.000 141.200 L 197.200 141.200 197.200 143.172 M201.200 177.800 C 201.200 178.600,201.400 178.800,202.200 178.800 C 203.133 178.800,203.200 178.933,203.200 180.800 C 203.200 182.667,203.267 182.800,204.200 182.800 C 205.133 182.800,205.200 182.933,205.200 184.800 C 205.200 186.667,205.267 186.800,206.200 186.800 C 207.048 186.800,207.200 186.985,207.200 188.019 C 207.200 188.806,207.555 189.567,208.200 190.165 C 208.750 190.675,209.200 191.476,209.200 191.946 C 209.200 192.590,209.446 192.800,210.200 192.800 C 211.133 192.800,211.200 192.933,211.200 194.800 C 211.200 196.667,211.267 196.800,212.200 196.800 C 212.950 196.800,213.200 197.011,213.200 197.642 C 213.200 198.106,213.650 198.839,214.200 199.271 C 214.919 199.837,215.200 200.443,215.200 201.429 C 215.200 202.625,215.328 202.800,216.200 202.800 C 217.133 202.800,217.200 202.933,217.200 204.800 C 217.200 206.667,217.267 206.800,218.200 206.800 C 219.178 206.800,219.200 206.867,219.200 209.800 C 219.200 212.733,219.222 212.800,220.200 212.800 L 221.200 212.800 221.200 216.854 C 221.200 220.665,221.140 220.964,220.200 221.835 C 219.365 222.609,219.200 223.128,219.200 224.981 C 219.200 227.081,219.146 227.200,218.200 227.200 C 217.428 227.200,217.200 227.406,217.200 228.105 C 217.200 228.660,216.852 229.163,216.300 229.405 C 215.757 229.643,215.351 230.220,215.277 230.858 C 215.122 232.205,214.130 233.096,212.600 233.267 C 211.711 233.365,211.367 233.633,211.272 234.300 C 211.180 234.951,210.876 235.200,210.172 235.200 C 209.402 235.200,209.200 235.408,209.200 236.200 C 209.200 237.178,209.133 237.200,206.200 237.200 C 203.267 237.200,203.200 237.222,203.200 238.200 C 203.200 239.183,203.147 239.200,200.000 239.200 C 196.853 239.200,196.800 239.183,196.800 238.200 C 196.800 237.222,196.733 237.200,193.800 237.200 C 190.867 237.200,190.800 237.178,190.800 236.200 C 190.800 235.408,190.598 235.200,189.828 235.200 C 189.124 235.200,188.820 234.951,188.728 234.300 C 188.633 233.633,188.289 233.365,187.400 233.267 C 185.876 233.097,184.954 232.271,184.662 230.812 C 184.527 230.137,184.096 229.558,183.616 229.405 C 183.089 229.238,182.800 228.801,182.800 228.173 C 182.800 227.402,182.593 227.200,181.800 227.200 C 180.878 227.200,180.800 227.056,180.800 225.358 C 180.800 223.869,180.608 223.364,179.800 222.729 C 178.763 221.913,178.199 214.800,179.171 214.800 C 180.194 214.800,180.800 213.449,180.800 211.171 C 180.800 208.909,180.846 208.800,181.800 208.800 C 182.733 208.800,182.800 208.667,182.800 206.800 C 182.800 204.933,182.867 204.800,183.800 204.800 C 184.733 204.800,184.800 204.667,184.800 202.800 C 184.800 200.933,184.867 200.800,185.800 200.800 C 186.733 200.800,186.800 200.667,186.800 198.800 C 186.800 196.933,186.867 196.800,187.800 196.800 C 188.592 196.800,188.800 196.598,188.800 195.828 C 188.800 195.124,189.049 194.820,189.700 194.728 C 190.468 194.619,190.618 194.321,190.722 192.700 C 190.832 190.985,190.939 190.800,191.822 190.800 C 192.729 190.800,192.800 190.655,192.800 188.800 C 192.800 186.933,192.867 186.800,193.800 186.800 C 194.600 186.800,194.800 186.600,194.800 185.800 C 194.800 185.000,195.000 184.800,195.800 184.800 C 196.733 184.800,196.800 184.667,196.800 182.800 C 196.800 180.933,196.867 180.800,197.800 180.800 C 198.733 180.800,198.800 180.667,198.800 178.800 C 198.800 176.844,198.827 176.800,200.000 176.800 C 201.013 176.800,201.200 176.956,201.200 177.800 M261.200 178.200 L 261.200 179.200 254.200 179.200 L 247.200 179.200 247.200 180.182 C 247.200 181.125,247.081 181.170,244.300 181.282 L 241.400 181.400 241.400 183.000 C 241.400 184.355,241.538 184.620,242.300 184.728 C 243.094 184.841,243.200 185.087,243.200 186.828 C 243.200 188.653,243.273 188.800,244.178 188.800 C 245.061 188.800,245.168 188.985,245.278 190.700 C 245.382 192.321,245.532 192.619,246.300 192.728 C 246.951 192.820,247.200 193.124,247.200 193.828 L 247.200 194.800 255.972 194.800 L 264.744 194.800 264.872 193.900 L 265.000 193.000 274.948 192.893 L 284.895 192.786 285.828 193.793 C 286.712 194.746,286.986 194.800,290.981 194.800 C 293.311 194.800,295.200 194.966,295.200 195.171 C 295.200 196.189,296.551 196.800,298.801 196.800 C 300.927 196.800,301.156 196.884,301.272 197.700 C 301.380 198.456,301.685 198.620,303.179 198.727 C 304.442 198.817,305.220 199.136,305.860 199.827 C 306.435 200.448,307.203 200.800,307.981 200.800 C 309.015 200.800,309.200 200.952,309.200 201.800 C 309.200 202.733,309.333 202.800,311.200 202.800 C 313.067 202.800,313.200 202.867,313.200 203.800 C 313.200 204.600,313.400 204.800,314.200 204.800 C 315.000 204.800,315.200 205.000,315.200 205.800 C 315.200 206.600,315.400 206.800,316.200 206.800 C 317.000 206.800,317.200 207.000,317.200 207.800 C 317.200 208.600,317.400 208.800,318.200 208.800 C 319.000 208.800,319.200 209.000,319.200 209.800 C 319.200 210.600,319.400 210.800,320.200 210.800 C 321.005 210.800,321.200 210.999,321.200 211.818 C 321.200 212.378,321.650 213.286,322.200 213.836 C 322.750 214.386,323.200 215.278,323.200 215.818 C 323.200 216.599,323.405 216.800,324.200 216.800 C 325.000 216.800,325.200 217.000,325.200 217.800 L 325.200 218.800 331.000 218.800 L 336.800 218.800 336.800 217.800 C 336.800 217.000,337.000 216.800,337.800 216.800 L 338.800 216.800 338.800 212.000 L 338.800 207.200 337.822 207.200 C 336.939 207.200,336.832 207.015,336.722 205.300 C 336.618 203.679,336.468 203.381,335.700 203.272 C 335.049 203.180,334.800 202.876,334.800 202.172 C 334.800 201.402,334.592 201.200,333.800 201.200 C 333.000 201.200,332.800 201.000,332.800 200.200 C 332.800 199.400,332.600 199.200,331.800 199.200 C 331.000 199.200,330.800 199.000,330.800 198.200 C 330.800 197.400,330.600 197.200,329.800 197.200 C 329.000 197.200,328.800 197.000,328.800 196.200 C 328.800 195.400,328.600 195.200,327.800 195.200 C 327.000 195.200,326.800 195.000,326.800 194.200 C 326.800 193.400,326.600 193.200,325.800 193.200 C 325.000 193.200,324.800 193.000,324.800 192.200 C 324.800 191.400,324.600 191.200,323.800 191.200 C 323.000 191.200,322.800 191.000,322.800 190.200 C 322.800 189.267,322.667 189.200,320.800 189.200 C 318.933 189.200,318.800 189.133,318.800 188.200 C 318.800 187.408,318.598 187.200,317.828 187.200 C 317.124 187.200,316.820 186.951,316.728 186.300 C 316.619 185.532,316.321 185.382,314.700 185.278 C 312.985 185.168,312.800 185.061,312.800 184.178 C 312.800 183.228,312.715 183.200,309.800 183.200 C 306.867 183.200,306.800 183.178,306.800 182.200 C 306.800 181.230,306.717 181.200,304.043 181.200 C 301.446 181.200,301.272 181.143,301.039 180.212 C 300.794 179.237,300.727 179.223,295.895 179.112 C 291.162 179.004,290.996 178.970,290.872 178.100 L 290.744 177.200 275.972 177.200 L 261.200 177.200 261.200 178.200 M63.200 186.172 C 63.200 186.876,62.951 187.180,62.300 187.272 C 61.433 187.395,61.396 187.570,61.287 192.100 L 61.175 196.800 62.187 196.800 C 63.001 196.800,63.200 196.997,63.200 197.800 C 63.200 198.594,63.402 198.800,64.177 198.800 C 65.040 198.800,65.168 198.998,65.277 200.500 C 65.371 201.802,65.607 202.291,66.284 202.588 C 66.770 202.801,67.220 203.341,67.284 203.788 C 67.353 204.271,67.755 204.650,68.275 204.725 C 68.821 204.802,69.198 205.179,69.275 205.725 C 69.355 206.282,69.731 206.647,70.311 206.729 C 70.812 206.800,71.659 207.295,72.193 207.829 C 72.727 208.363,73.622 208.800,74.182 208.800 C 75.001 208.800,75.200 208.995,75.200 209.800 C 75.200 210.600,75.400 210.800,76.200 210.800 C 77.000 210.800,77.200 211.000,77.200 211.800 C 77.200 212.733,77.333 212.800,79.200 212.800 C 81.067 212.800,81.200 212.867,81.200 213.800 C 81.200 214.733,81.333 214.800,83.200 214.800 C 85.067 214.800,85.200 214.867,85.200 215.800 C 85.200 216.733,85.333 216.800,87.200 216.800 C 89.067 216.800,89.200 216.867,89.200 217.800 C 89.200 218.777,89.269 218.800,92.172 218.800 C 94.950 218.800,95.153 218.859,95.272 219.700 C 95.396 220.575,95.548 220.603,100.680 220.711 C 105.757 220.819,105.990 220.861,106.738 221.811 L 107.515 222.800 121.158 222.800 L 134.800 222.800 134.800 221.800 L 134.800 220.800 140.800 220.800 L 146.800 220.800 146.800 214.800 L 146.800 208.800 147.800 208.800 C 148.719 208.800,148.800 208.653,148.800 207.000 L 148.800 205.200 140.158 205.200 L 131.515 205.200 130.729 206.200 L 129.942 207.200 120.399 207.200 L 110.856 207.200 110.728 206.300 C 110.604 205.430,110.438 205.396,105.700 205.288 L 100.800 205.175 100.800 204.188 C 100.800 203.225,100.723 203.200,97.800 203.200 C 94.867 203.200,94.800 203.178,94.800 202.200 C 94.800 201.267,94.667 201.200,92.800 201.200 C 90.933 201.200,90.800 201.133,90.800 200.200 C 90.800 199.267,90.667 199.200,88.800 199.200 C 86.933 199.200,86.800 199.133,86.800 198.200 C 86.800 197.400,86.600 197.200,85.800 197.200 C 85.000 197.200,84.800 197.000,84.800 196.200 C 84.800 195.408,84.598 195.200,83.828 195.200 C 83.124 195.200,82.820 194.951,82.728 194.300 C 82.647 193.730,82.279 193.354,81.725 193.275 C 81.179 193.198,80.802 192.821,80.725 192.275 C 80.646 191.721,80.270 191.353,79.700 191.272 C 79.049 191.180,78.800 190.876,78.800 190.172 C 78.800 189.402,78.592 189.200,77.800 189.200 C 77.000 189.200,76.800 189.000,76.800 188.200 C 76.800 187.400,76.600 187.200,75.800 187.200 C 75.000 187.200,74.800 187.000,74.800 186.200 L 74.800 185.200 69.000 185.200 L 63.200 185.200 63.200 186.172 M261.472 265.461 C 261.323 265.611,261.200 266.059,261.200 266.458 C 261.200 267.129,260.627 267.191,253.500 267.291 C 245.947 267.398,245.792 267.417,245.405 268.300 C 245.027 269.163,244.808 269.200,240.105 269.200 L 235.200 269.200 235.200 270.200 L 235.200 271.200 230.829 271.200 C 226.523 271.200,225.200 271.579,225.200 272.814 C 225.200 273.010,223.445 273.223,221.300 273.286 C 217.620 273.394,217.393 273.450,217.274 274.285 C 217.156 275.116,216.921 275.178,213.474 275.285 C 210.102 275.391,209.767 275.474,209.405 276.300 C 209.047 277.115,208.735 277.200,206.087 277.200 C 203.502 277.200,203.048 277.316,202.164 278.200 C 201.276 279.088,200.829 279.200,198.182 279.200 C 195.268 279.200,195.200 279.223,195.200 280.200 L 195.200 281.200 191.200 281.200 C 187.216 281.200,187.200 281.204,187.200 282.185 C 187.200 283.152,187.134 283.172,183.500 283.285 C 180.102 283.391,179.768 283.473,179.405 284.300 C 179.044 285.123,178.742 285.200,175.886 285.200 C 173.067 285.200,172.671 285.298,171.835 286.200 C 171.001 287.099,170.599 287.200,167.835 287.200 C 165.084 287.200,164.666 287.303,163.850 288.184 C 163.024 289.075,162.582 289.179,159.169 289.284 C 155.621 289.393,155.393 289.452,155.274 290.288 C 155.152 291.142,154.964 291.180,150.274 291.288 C 145.563 291.396,145.396 291.430,145.272 292.300 C 145.146 293.187,145.061 293.200,139.172 293.200 L 133.200 293.200 133.200 294.200 L 133.200 295.200 120.028 295.200 L 106.856 295.200 106.728 294.300 C 106.607 293.446,106.400 293.394,102.700 293.286 C 100.555 293.223,98.800 293.010,98.800 292.814 C 98.800 291.806,97.437 291.200,95.171 291.200 C 92.909 291.200,92.800 291.154,92.800 290.200 C 92.800 289.267,92.667 289.200,90.800 289.200 C 88.933 289.200,88.800 289.133,88.800 288.200 C 88.800 287.267,88.667 287.200,86.800 287.200 C 84.933 287.200,84.800 287.133,84.800 286.200 C 84.800 285.400,84.600 285.200,83.800 285.200 C 83.000 285.200,82.800 285.000,82.800 284.200 C 82.800 283.400,82.600 283.200,81.800 283.200 C 81.000 283.200,80.800 283.000,80.800 282.200 C 80.800 281.400,80.600 281.200,79.800 281.200 C 79.000 281.200,78.800 281.000,78.800 280.200 C 78.800 279.400,78.600 279.200,77.800 279.200 C 77.000 279.200,76.800 279.000,76.800 278.200 C 76.800 277.400,76.600 277.200,75.800 277.200 C 75.000 277.200,74.800 277.000,74.800 276.200 C 74.800 275.400,74.600 275.200,73.800 275.200 C 73.000 275.200,72.800 275.000,72.800 274.200 L 72.800 273.200 68.000 273.200 L 63.200 273.200 63.200 274.200 C 63.200 275.000,63.000 275.200,62.200 275.200 C 61.268 275.200,61.200 275.335,61.200 277.173 C 61.200 278.778,61.054 279.192,60.420 279.394 C 58.929 279.867,58.941 282.137,60.437 282.612 C 61.052 282.807,61.200 283.237,61.200 284.827 C 61.200 286.665,61.268 286.800,62.200 286.800 C 63.000 286.800,63.200 287.000,63.200 287.800 C 63.200 288.600,63.400 288.800,64.200 288.800 C 65.000 288.800,65.200 289.000,65.200 289.800 C 65.200 290.600,65.400 290.800,66.200 290.800 C 67.000 290.800,67.200 291.000,67.200 291.800 C 67.200 292.600,67.400 292.800,68.200 292.800 C 69.000 292.800,69.200 293.000,69.200 293.800 C 69.200 294.600,69.400 294.800,70.200 294.800 C 71.000 294.800,71.200 295.000,71.200 295.800 C 71.200 296.600,71.400 296.800,72.200 296.800 C 73.000 296.800,73.200 297.000,73.200 297.800 C 73.200 298.600,73.400 298.800,74.200 298.800 C 75.000 298.800,75.200 299.000,75.200 299.800 C 75.200 300.733,75.333 300.800,77.200 300.800 C 79.067 300.800,79.200 300.867,79.200 301.800 C 79.200 302.733,79.333 302.800,81.200 302.800 C 83.067 302.800,83.200 302.867,83.200 303.800 C 83.200 304.733,83.333 304.800,85.200 304.800 C 87.067 304.800,87.200 304.867,87.200 305.800 C 87.200 306.778,87.267 306.800,90.200 306.800 C 93.133 306.800,93.200 306.822,93.200 307.800 C 93.200 308.797,93.210 308.800,97.054 308.800 C 100.651 308.800,100.970 308.867,101.835 309.800 L 102.762 310.800 119.781 310.800 L 136.800 310.800 136.800 309.809 L 136.800 308.819 143.700 308.709 C 150.485 308.602,150.602 308.585,150.726 307.712 C 150.848 306.858,151.036 306.820,155.726 306.712 C 160.437 306.604,160.604 306.570,160.728 305.700 C 160.851 304.836,161.013 304.800,164.828 304.800 C 168.798 304.800,168.800 304.800,168.800 303.800 L 168.800 302.800 172.800 302.800 L 176.800 302.800 176.800 301.800 L 176.800 300.800 180.800 300.800 L 184.800 300.800 184.800 299.800 C 184.800 298.816,184.852 298.800,188.019 298.800 C 190.939 298.800,191.324 298.707,192.165 297.800 C 192.987 296.913,193.415 296.800,195.946 296.800 C 198.712 296.800,198.800 296.770,198.800 295.814 C 198.800 294.842,198.853 294.827,202.700 294.714 C 206.400 294.606,206.607 294.554,206.728 293.700 C 206.849 292.849,207.036 292.800,210.199 292.800 C 213.462 292.800,214.800 292.326,214.800 291.171 C 214.800 290.967,216.079 290.800,217.642 290.800 C 220.198 290.800,220.564 290.699,221.271 289.800 C 221.994 288.882,222.320 288.800,225.271 288.800 C 228.211 288.800,228.551 288.716,229.261 287.813 C 229.988 286.889,230.310 286.819,234.319 286.713 C 238.397 286.605,238.606 286.558,238.726 285.712 C 238.848 284.858,239.036 284.820,243.726 284.712 C 248.421 284.604,248.605 284.567,248.727 283.710 C 248.851 282.835,248.970 282.817,255.527 282.710 C 262.014 282.603,262.211 282.575,262.595 281.700 L 262.990 280.800 274.000 280.800 L 285.010 280.800 285.405 281.700 C 285.778 282.550,286.062 282.606,290.500 282.713 L 295.200 282.825 295.200 283.813 C 295.200 284.775,295.277 284.800,298.200 284.800 C 301.133 284.800,301.200 284.822,301.200 285.800 C 301.200 286.733,301.333 286.800,303.200 286.800 C 305.067 286.800,305.200 286.867,305.200 287.800 C 305.200 288.592,305.402 288.800,306.172 288.800 C 306.876 288.800,307.180 289.049,307.272 289.700 C 307.381 290.468,307.679 290.618,309.300 290.722 C 311.015 290.832,311.200 290.939,311.200 291.822 C 311.200 292.599,311.406 292.800,312.200 292.800 C 313.000 292.800,313.200 293.000,313.200 293.800 C 313.200 294.600,313.400 294.800,314.200 294.800 C 315.000 294.800,315.200 295.000,315.200 295.800 C 315.200 296.600,315.400 296.800,316.200 296.800 C 317.000 296.800,317.200 297.000,317.200 297.800 C 317.200 298.600,317.400 298.800,318.200 298.800 C 319.072 298.800,319.200 298.975,319.200 300.171 C 319.200 301.473,320.022 302.800,320.829 302.800 C 321.033 302.800,321.200 303.250,321.200 303.800 C 321.200 304.600,321.400 304.800,322.200 304.800 C 323.000 304.800,323.200 305.000,323.200 305.800 L 323.200 306.800 329.000 306.800 L 334.800 306.800 334.800 305.800 C 334.800 305.000,335.000 304.800,335.800 304.800 L 336.800 304.800 336.800 300.000 L 336.800 295.200 335.800 295.200 C 334.928 295.200,334.800 295.025,334.800 293.829 C 334.800 292.527,333.978 291.200,333.171 291.200 C 332.967 291.200,332.800 290.750,332.800 290.200 C 332.800 289.400,332.600 289.200,331.800 289.200 C 331.000 289.200,330.800 289.000,330.800 288.200 C 330.800 287.400,330.600 287.200,329.800 287.200 C 329.000 287.200,328.800 287.000,328.800 286.200 C 328.800 285.400,328.600 285.200,327.800 285.200 C 327.000 285.200,326.800 285.000,326.800 284.200 C 326.800 283.400,326.600 283.200,325.800 283.200 C 325.000 283.200,324.800 283.000,324.800 282.200 C 324.800 281.400,324.600 281.200,323.800 281.200 C 323.000 281.200,322.800 281.000,322.800 280.200 C 322.800 279.408,322.598 279.200,321.828 279.200 C 321.124 279.200,320.820 278.951,320.728 278.300 C 320.619 277.532,320.321 277.382,318.700 277.278 C 316.985 277.168,316.800 277.061,316.800 276.178 C 316.800 275.446,316.585 275.200,315.946 275.200 C 315.476 275.200,314.675 274.750,314.165 274.200 C 313.576 273.565,312.804 273.200,312.047 273.200 C 311.116 273.200,310.828 273.003,310.728 272.300 C 310.611 271.474,310.361 271.390,307.700 271.282 C 304.919 271.170,304.800 271.125,304.800 270.182 C 304.800 269.227,304.717 269.200,301.828 269.200 C 299.050 269.200,298.847 269.141,298.728 268.300 C 298.603 267.419,298.475 267.398,292.726 267.289 C 286.999 267.182,286.850 267.157,286.726 266.289 L 286.600 265.400 274.172 265.294 C 267.337 265.236,261.622 265.311,261.472 265.461 " stroke="none" fill="#040404" fill-rule="evenodd"></path><path id="path1" d="" stroke="none" fill="#080404" fill-rule="evenodd"></path><path id="path2" d="" stroke="none" fill="#080404" fill-rule="evenodd"></path><path id="path3" d="" stroke="none" fill="#080404" fill-rule="evenodd"></path><path id="path4" d="" stroke="none" fill="#080404" fill-rule="evenodd"></path></g></svg>