<?xml version="1.0" encoding="utf-8"?>
<!-- Svg Vector Icons : http://www.onlinewebfonts.com/icon -->
<!DOCTYPE svg PUBLIC "-//W3C//DTD SVG 1.1//EN" "http://www.w3.org/Graphics/SVG/1.1/DTD/svg11.dtd">
<svg version="1.1" xmlns="http://www.w3.org/2000/svg" xmlns:xlink="http://www.w3.org/1999/xlink" x="0px" y="0px" viewBox="0 0 1000 1000" enable-background="new 0 0 1000 1000" xml:space="preserve">
<metadata> Svg Vector Icons : http://www.onlinewebfonts.com/icon </metadata>
<g><path d="M500,10C229.4,10,10,229.4,10,500c0,270.6,219.4,490,490,490c270.6,0,490-219.4,490-490C990,229.4,770.6,10,500,10z M500,924.7C265.4,924.7,75.3,734.6,75.3,500C75.3,265.4,265.4,75.3,500,75.3c234.6,0,424.7,190.1,424.7,424.7C924.7,734.6,734.6,924.7,500,924.7z"/><path d="M760.1,356.1l-246,254.7c11.1,48.6-1.8,101.5-39.6,139.3c-58.5,58.5-153.3,58.5-211.8,0c-58.5-58.5-58.5-153.3,0-211.8c33.1-33.1,77.9-47.1,121.1-42.7l253.5-262.4c29.4-29.5,79.9-26.7,109.4,2.8l10.7,10.7C786.8,276.1,789.6,326.6,760.1,356.1z M731.3,271.1l-6.7-6.7c-18.6-18.6-50.5-20.3-69.1-1.7L407.1,516.5c-4.7,14.6-26.8,16.1-26.8,16.1c-32.5-3.4-66.1,7.3-91,32.2c-43.8,43.8-43.8,114.9,0,158.8c43.8,43.9,114.9,43.9,158.8,0c30-30,39.5-72.8,28.4-110.9c0,0-2.4-12.8,10.1-20.5l68.9-70.4l2.1,2l16.6-18.2l-1.5-1.3l30-30.7l1.7,1.7l16.6-16.6l-1.9-1.9l46.3-47.4l-30.2-29l16.6-16.6l30,28.8l30.2-30.9l-46.7-46.7l16.6-16.6l46.5,46.5l4.8-4.9C751.6,321.6,749.9,289.7,731.3,271.1z M602.5,441l-26.2-25.2l-16.6,16.6l26.4,25.4l-30.7,31.4l-18-16.9l-16.6,16.6l17.9,17.4l-92.5,94.6c19.1,34,14.5,77.8-14.4,106.7c-34.9,34.9-91.5,34.9-126.4,0c-34.9-34.9-34.9-91.5,0-126.4c24.4-24.4,59.4-31.4,90.2-21.6l179.5-183.4c11-11,29.9-10,41,1l4,4c11,11,12.1,29.9,1,40.9L602.5,441z M330.4,598.3c-38.5,33.5-14.5,89-14.5,78.9c8.4-80.3,82-81.7,82-81.7S368.9,564.9,330.4,598.3z"/><path d="M686.2,787.5c-41.5,0-75.1-33.6-75.1-75.1c0-41.4,75.1-166.8,75.1-166.8s75.1,125.3,75.1,166.8C761.3,753.9,727.6,787.5,686.2,787.5z M709.2,747.9c-39.1,0-71.3-29.8-75-67.9c-5.7,9.1-9,19.9-9,31.5c0,33,26.7,59.7,59.7,59.7c21.3,0,40-11.2,50.6-28.1C727.3,746.1,718.4,747.9,709.2,747.9z"/></g>
</svg>